<svg width="30" height="30" viewBox="0 0 30 30" fill="none" xmlns="http://www.w3.org/2000/svg">
<rect width="30" height="30" rx="6" fill="white"/>
<path fill-rule="evenodd" clip-rule="evenodd" d="M5.44168 10.5544C5.44168 10.3498 5.5008 10.3521 5.61048 10.3563C5.62735 10.357 5.64541 10.3577 5.66464 10.3577H6.96306C7.09946 10.3577 7.11607 10.4539 7.10732 10.502V18.3056C7.10732 18.5941 6.81879 19.5384 5.63841 19.5909C4.69411 19.6328 4.31814 18.6203 4.24819 18.1088C4.5717 18.1001 5.23971 18.0878 5.32364 18.1088C5.40758 18.1298 5.43731 18.0564 5.44168 18.017V10.5544ZM8.31393 12.8234C8.31393 12.7184 8.37514 12.6747 8.40574 12.666H9.88777C9.97848 12.666 10.0038 12.7467 10.0057 12.7918C9.99698 12.3777 9.98758 11.9114 10.0189 13.3217C10.0583 15.0923 10.2943 16.6661 10.373 16.7711C10.436 16.855 10.3993 16.9897 10.373 17.0465L9.52054 18.7121C9.49868 18.7515 9.37365 18.6675 9.04839 18.017C8.72313 17.3665 8.55438 16.2508 8.51066 15.7743L8.31393 12.8234ZM14.0715 10.3577C14.1371 10.3664 14.2394 10.4285 14.124 10.6069C14.0086 10.7852 13.4114 11.9665 13.1272 12.5348C13.0792 12.6048 13.0013 12.763 13.0748 12.8365C13.1666 12.9283 13.2584 12.9807 13.3371 12.8889C13.4 12.8155 13.4245 12.7709 13.4289 12.7578C13.4551 12.7359 13.5233 12.6922 13.5863 12.6922H14.9896C15.0333 12.6922 15.1077 12.7211 15.0552 12.8365C15.0027 12.9519 14.1328 14.6333 13.7043 15.4595C13.6387 15.5863 13.5758 15.8399 13.8486 15.8399H14.5568C14.6093 15.8399 14.6932 15.8792 14.6093 16.0366C14.5253 16.194 14.1808 16.8366 14.0191 17.1383C14.0103 17.1689 13.964 17.2301 13.8486 17.2301H11.96C11.7764 17.147 11.4642 16.8471 11.6846 16.312C11.9049 15.7769 12.301 14.9349 12.4715 14.5808C12.5196 14.5109 12.5764 14.3736 12.419 14.3841C12.2616 14.3946 11.7239 14.3885 11.4747 14.3841C11.1949 14.301 10.7167 13.9906 11.0419 13.4135C11.3672 12.8365 12.1392 11.232 12.4846 10.502C12.4933 10.4539 12.5318 10.3577 12.6158 10.3577H14.0715ZM13.8092 17.7941H11.5272C11.3593 17.7941 11.2824 17.864 11.2649 17.899C11.0681 18.2531 10.6432 19.019 10.5173 19.2499C10.3914 19.4807 10.5873 19.5471 10.7009 19.5515C11.3654 19.5646 12.7364 19.5909 12.9043 19.5909C13.0722 19.5909 13.1491 19.5034 13.1666 19.4597C13.3808 19.0488 13.8329 18.1823 13.9273 18.0039C14.0217 17.8255 13.8879 17.7897 13.8092 17.7941ZM15.5667 10.9216H19.1865C19.2565 10.9129 19.3964 10.9348 19.3964 11.0921V12.5348C19.3964 12.5698 19.3623 12.6397 19.2259 12.6397H18.3471C18.3078 12.6354 18.2291 12.6476 18.2291 12.7316V17.7416C18.2291 17.7897 18.258 17.8859 18.3734 17.8859H19.8292C19.8773 17.8771 19.9734 17.8885 19.9734 18.0039V19.4597C19.9734 19.4947 19.9446 19.5672 19.8292 19.5777C19.7138 19.5882 15.9689 19.5821 14.1109 19.5777C14.0497 19.5777 13.9456 19.5463 14.0191 19.4204C14.0925 19.2945 14.583 18.3449 14.8191 17.8859H16.4848C16.511 17.8902 16.5635 17.8675 16.5635 17.7416V12.8365C16.5635 12.7709 16.5294 12.6397 16.393 12.6397H15.5667C15.5186 12.6441 15.4224 12.6214 15.4224 12.4955V11.0134C15.4355 10.9828 15.4828 10.9216 15.5667 10.9216ZM26.2688 11.643V12.5348C26.2688 12.5978 26.3038 12.6135 26.3212 12.6135C26.4393 12.6223 26.8039 12.6397 27.318 12.6397C27.8321 12.6397 28 12.1807 28 11.8266C28 11.2889 27.7902 10.9216 27.1082 10.9216C26.4262 10.9216 26.2644 11.4025 26.2688 11.643ZM21.5735 10.9216C21.6085 10.926 21.6863 10.9085 21.7178 10.8036C21.7492 10.6987 21.7484 10.5326 21.744 10.4626C21.7396 10.432 21.7545 10.3708 21.8489 10.3708H23.3178C23.3397 10.3795 23.3834 10.418 23.3834 10.502V10.8823C23.3965 10.8954 23.4411 10.9216 23.5146 10.9216H24.3015C24.8261 11.0309 25.8884 11.4751 25.9409 12.3774C25.9934 13.2798 25.989 13.7939 25.9802 13.9382C25.9715 13.9819 25.9855 14.0693 26.1114 14.0693C26.1134 14.0693 26.1157 14.0693 26.1183 14.0693H26.1185C26.3146 14.0689 28 14.0656 28 15.735V18.1875C27.9126 18.6509 27.4885 19.5777 26.4917 19.5777C25.412 19.5777 25.1104 19.233 24.9552 19.0557C24.9313 19.0284 24.9109 19.005 24.8917 18.9876C24.7474 18.8564 24.6163 18.4892 24.6031 18.1875H26.1114C26.1726 18.2006 26.295 18.198 26.295 18.0826V16.4038C26.2775 16.2115 26.1691 15.8268 25.8753 15.8268H23.5015C23.4577 15.8311 23.3703 15.8661 23.3703 15.971V19.5384H21.744V15.8268H19.9734V14.0693H21.744V12.6397H20.5374V10.9216H21.5735ZM23.3834 12.6135L23.3965 14.0693H24.9048V13.0463C24.8786 12.8758 24.7238 12.5348 24.3146 12.5348C23.9054 12.5348 23.5233 12.5873 23.3834 12.6135Z" fill="black"/>
<path d="M2.21532 16.1678L2.47762 12.666H4.20884C4.19136 13.2124 4.13277 14.607 4.03834 15.8136C3.92031 17.3219 3.19896 18.5154 3.08093 18.6597C2.9865 18.7751 2.91043 18.734 2.8842 18.699L2.05793 17.0858C2.01422 16.9809 1.95301 16.7501 2.05793 16.6661C2.16286 16.5822 2.20657 16.2989 2.21532 16.1678Z" fill="black"/>
</svg>
