<svg width="30" height="30" viewBox="0 0 30 30" fill="none" xmlns="http://www.w3.org/2000/svg">
<path d="M28.9991 19.9977C28.9991 15.8989 25.0867 12.578 20.2619 12.578C15.4344 12.578 11.522 15.8998 11.522 19.9977C11.522 24.0955 15.4344 27.4174 20.2619 27.4174C21.778 27.4174 23.2049 27.0867 24.4498 26.5084L27.8942 27.9992L27.4952 24.1568C28.4462 22.9705 29 21.5374 29 19.9977H28.9991ZM17.3162 17.9872C16.6286 17.9872 16.073 17.4308 16.073 16.7441C16.073 16.0573 16.6286 15.5009 17.3162 15.5009C18.003 15.5009 18.5585 16.0582 18.5585 16.7441C18.5585 17.43 18.0012 17.9872 17.3162 17.9872ZM23.2049 17.9872C22.5199 17.9872 21.9626 17.4308 21.9626 16.7441C21.9626 16.0573 22.5199 15.5009 23.2049 15.5009C23.8934 15.5009 24.4498 16.0582 24.4498 16.7441C24.4498 17.43 23.8934 17.9872 23.2049 17.9872ZM20.2619 11.5955C21.6118 11.5955 22.8978 11.8361 24.0693 12.2691C24.078 12.1125 24.0964 11.9621 24.0964 11.8046C24.0964 6.38919 18.9251 2 12.5473 2C6.17132 2 1 6.38831 1 11.8046C1 13.8413 1.73314 15.7353 2.98769 17.3031L2.46102 22.3791L7.01119 20.408C8.13801 20.9329 9.38381 21.2872 10.6987 21.4683C10.5999 20.9898 10.5395 20.4998 10.5395 19.9977C10.5404 15.3653 14.9016 11.5964 20.2619 11.5964V11.5955ZM16.4396 5.86514C17.3468 5.86514 18.08 6.60003 18.08 7.50551C18.08 8.41274 17.3468 9.14763 16.4396 9.14763C15.5324 9.14763 14.7983 8.41274 14.7983 7.50551C14.7983 6.59915 15.5332 5.86514 16.4396 5.86514ZM8.65505 9.14763C7.74782 9.14763 7.01469 8.41274 7.01469 7.50551C7.01469 6.59915 7.7487 5.86514 8.65505 5.86514C9.56229 5.86514 10.2963 6.60003 10.2963 7.50551C10.2963 8.411 9.56141 9.14763 8.65505 9.14763Z" fill="white"/>
</svg>
