<svg width="77" height="40" viewBox="0 0 77 40" fill="none" xmlns="http://www.w3.org/2000/svg">
<path d="M8.608 5.576H10.32L5.152 10.472L11.04 17H9.28L4.24 11.32L2.464 13V17H1.152V5.576H2.464V11.512L8.608 5.576ZM14.6949 5.608C14.9669 5.608 15.1909 5.688 15.3829 5.88C15.5749 6.04 15.6709 6.264 15.6709 6.552C15.6709 6.824 15.5749 7.048 15.3829 7.24C15.1909 7.416 14.9669 7.512 14.6949 7.512C14.4229 7.512 14.1989 7.416 14.0069 7.24C13.8149 7.048 13.7349 6.824 13.7349 6.552C13.7349 6.264 13.8149 6.04 14.0069 5.88C14.1989 5.688 14.4229 5.608 14.6949 5.608ZM14.0549 8.728H15.3349V17H14.0549V8.728ZM22.9486 8.504C24.2126 8.504 25.0766 9.016 25.5406 10.072C25.8606 9.528 26.2446 9.128 26.6926 8.888C27.0926 8.632 27.5726 8.504 28.1486 8.504C29.0126 8.504 29.7006 8.776 30.2446 9.32C30.7566 9.88 31.0286 10.632 31.0286 11.576V17H29.7486V11.784C29.7486 11.048 29.5886 10.504 29.2846 10.152C28.9646 9.768 28.4526 9.592 27.7486 9.592C27.2046 9.592 26.7406 9.784 26.3886 10.2C26.0046 10.616 25.8286 11.144 25.8286 11.816V17H24.5486V11.784C24.5486 10.312 23.9086 9.592 22.6446 9.592C22.0526 9.592 21.5726 9.816 21.1886 10.296C20.8046 10.744 20.6126 11.304 20.6126 11.96V17H19.3326V8.728H20.6126V9.832C21.2366 8.936 22.0206 8.504 22.9486 8.504ZM35.6761 5.608C35.9481 5.608 36.1721 5.688 36.3641 5.88C36.5561 6.04 36.6521 6.264 36.6521 6.552C36.6521 6.824 36.5561 7.048 36.3641 7.24C36.1721 7.416 35.9481 7.512 35.6761 7.512C35.4041 7.512 35.1801 7.416 34.9881 7.24C34.7961 7.048 34.7161 6.824 34.7161 6.552C34.7161 6.264 34.7961 6.04 34.9881 5.88C35.1801 5.688 35.4041 5.608 35.6761 5.608ZM35.0361 8.728H36.3161V17H35.0361V8.728ZM46.522 5.576H55.882V6.712H51.85V17H50.554V6.712H46.522V5.576ZM59.8042 5.608C60.0762 5.608 60.3002 5.688 60.4922 5.88C60.6842 6.04 60.7802 6.264 60.7802 6.552C60.7802 6.824 60.6842 7.048 60.4922 7.24C60.3002 7.416 60.0762 7.512 59.8042 7.512C59.5322 7.512 59.3082 7.416 59.1162 7.24C58.9242 7.048 58.8442 6.824 58.8442 6.552C58.8442 6.264 58.9242 6.04 59.1162 5.88C59.3082 5.688 59.5322 5.608 59.8042 5.608ZM59.1642 8.728H60.4442V17H59.1642V8.728ZM68.314 8.504C70.362 8.504 71.402 9.64 71.402 11.912V17H70.122V12.008C70.122 10.392 69.386 9.592 67.946 9.592C67.37 9.592 66.874 9.8 66.458 10.216C66.01 10.664 65.77 11.256 65.722 12.008V17H64.442V8.728H65.722V9.944C66.01 9.48 66.378 9.128 66.826 8.888C67.274 8.632 67.77 8.504 68.314 8.504Z" fill="white"/>
<path d="M6.192 23.352C7.936 23.352 9.312 23.912 10.32 25.048C11.28 26.12 11.76 27.544 11.76 29.304C11.76 31.064 11.28 32.472 10.32 33.544C9.312 34.664 7.936 35.224 6.192 35.224C4.432 35.224 3.056 34.648 2.064 33.528C1.104 32.44 0.64 31.032 0.64 29.304C0.64 27.56 1.104 26.152 2.064 25.064C3.056 23.912 4.432 23.352 6.192 23.352ZM6.192 25C5.008 25 4.096 25.4 3.44 26.2C2.816 26.968 2.512 27.992 2.512 29.304C2.512 30.6 2.816 31.624 3.44 32.392C4.08 33.176 5.008 33.576 6.192 33.576C7.376 33.576 8.288 33.192 8.928 32.44C9.552 31.688 9.872 30.648 9.872 29.304C9.872 27.96 9.552 26.904 8.928 26.136C8.288 25.368 7.376 25 6.192 25ZM18.8703 26.504C19.2703 26.504 19.6223 26.568 19.9103 26.712V28.536C19.4943 28.408 19.1103 28.36 18.7263 28.36C18.2463 28.36 17.8143 28.536 17.4303 28.92C16.9823 29.352 16.7743 29.912 16.7743 30.616V35H14.9663V26.728H16.7743V27.912C16.9983 27.496 17.2543 27.176 17.5583 26.952C17.9263 26.648 18.3583 26.504 18.8703 26.504ZM25.9906 26.504C27.0146 26.504 27.8306 26.904 28.4386 27.736V26.728H30.2626V34.472C30.2626 37.08 28.9666 38.392 26.3746 38.392C25.2066 38.392 24.3266 38.168 23.7186 37.752C23.1106 37.304 22.7266 36.632 22.5666 35.704H24.3906C24.4866 36.168 24.6786 36.488 24.9826 36.68C25.2706 36.856 25.7346 36.952 26.3746 36.952C27.7506 36.952 28.4386 36.216 28.4386 34.744V33.528C27.8306 34.376 27.0146 34.808 25.9906 34.808C24.8706 34.808 23.9586 34.424 23.2706 33.688C22.5666 32.936 22.2306 31.928 22.2306 30.68C22.2306 29.432 22.5666 28.424 23.2706 27.656C23.9586 26.888 24.8706 26.504 25.9906 26.504ZM26.2786 27.976C25.5906 27.976 25.0626 28.216 24.6786 28.696C24.2946 29.16 24.1026 29.816 24.1026 30.68C24.1026 31.464 24.2466 32.072 24.5506 32.52C24.9026 33.048 25.4626 33.32 26.2626 33.32C26.9666 33.32 27.5106 33.08 27.8946 32.632C28.2626 32.152 28.4546 31.512 28.4546 30.68C28.4546 29.832 28.2626 29.176 27.8946 28.696C27.5106 28.216 26.9666 27.976 26.2786 27.976ZM37.5356 26.504C38.7516 26.504 39.6636 26.808 40.2396 27.416C40.7516 27.944 41.0076 28.712 41.0076 29.72V35H39.3116V33.912C38.9916 34.328 38.5916 34.632 38.1276 34.856C37.5996 35.096 36.9756 35.224 36.2556 35.224C35.3916 35.224 34.7196 35 34.2236 34.568C33.7116 34.12 33.4556 33.56 33.4556 32.872C33.4556 31.944 33.8076 31.224 34.5436 30.728C35.2156 30.248 36.1596 29.992 37.3756 29.96L39.1836 29.912V29.592C39.1836 28.504 38.5916 27.976 37.4076 27.976C36.8956 27.976 36.4956 28.056 36.1916 28.248C35.8396 28.456 35.5996 28.776 35.5036 29.208L33.6956 29.064C33.8716 28.152 34.3196 27.48 35.0396 27.064C35.6476 26.68 36.4796 26.504 37.5356 26.504ZM39.1836 31.224L37.5036 31.272C36.0476 31.304 35.3276 31.816 35.3276 32.808C35.3276 33.096 35.4396 33.336 35.6956 33.528C35.9516 33.72 36.2716 33.832 36.6716 33.832C37.3756 33.832 37.9676 33.624 38.4476 33.224C38.9276 32.808 39.1836 32.28 39.1836 31.64V31.224ZM48.8039 26.504C50.8679 26.504 51.9079 27.624 51.9079 29.896V35H50.0839V30.056C50.0839 28.696 49.4599 28.024 48.2119 28.024C47.7639 28.024 47.3639 28.184 47.0279 28.504C46.6439 28.856 46.4199 29.368 46.3559 30.024V35H44.5319V26.728H46.3559V27.688C46.6759 27.304 47.0439 27 47.4439 26.808C47.8599 26.6 48.3079 26.504 48.8039 26.504ZM56.6608 23.352C57.0128 23.352 57.3168 23.464 57.5568 23.688C57.7808 23.912 57.9088 24.2 57.9088 24.552C57.9088 24.904 57.7808 25.208 57.5408 25.432C57.3008 25.656 57.0128 25.768 56.6608 25.768C56.3088 25.768 56.0208 25.656 55.7808 25.432C55.5408 25.192 55.4288 24.904 55.4288 24.552C55.4288 24.2 55.5408 23.912 55.7808 23.688C56.0208 23.464 56.3088 23.352 56.6608 23.352ZM55.7488 26.728H57.5728V35H55.7488V26.728ZM64.555 26.504C66.731 26.504 67.931 27.368 68.123 29.128H66.347C66.219 28.712 66.027 28.408 65.771 28.248C65.499 28.072 65.083 27.992 64.523 27.992C64.043 27.992 63.675 28.056 63.435 28.2C63.147 28.344 63.019 28.568 63.019 28.888C63.019 29.144 63.227 29.384 63.675 29.576C63.947 29.688 64.491 29.848 65.323 30.056C66.251 30.28 66.955 30.536 67.403 30.84C68.059 31.256 68.395 31.848 68.395 32.584C68.395 34.344 67.147 35.224 64.667 35.224C62.363 35.224 61.131 34.248 60.955 32.312H62.731C62.827 32.84 63.019 33.208 63.291 33.432C63.563 33.624 63.995 33.736 64.603 33.736C65.883 33.736 66.523 33.384 66.523 32.712C66.523 32.328 66.283 32.024 65.803 31.8C65.547 31.672 65.003 31.528 64.171 31.336C63.195 31.112 62.507 30.872 62.107 30.616C61.467 30.216 61.147 29.656 61.147 28.936C61.147 28.168 61.451 27.576 62.091 27.16C62.715 26.712 63.531 26.504 64.555 26.504ZM74.0332 24.056V26.728H75.8732V28.232H74.0332V32.904C74.0332 33.096 74.0652 33.24 74.1612 33.352C74.2572 33.448 74.3852 33.496 74.5772 33.496H75.6652V35H74.2732C73.5532 35 73.0252 34.808 72.6892 34.424C72.3692 34.072 72.2092 33.576 72.2092 32.904V28.232H70.7212V26.728H72.2092V24.808L74.0332 24.056Z" fill="white"/>
</svg>
